<svg width="61" height="61" viewBox="0 0 61 61" fill="none" xmlns="http://www.w3.org/2000/svg">
<path d="M13.1706 37.6313C14.2098 37.6313 15.0522 36.7889 15.0522 35.7497C15.0522 34.7106 14.2098 33.8682 13.1706 33.8682C12.1315 33.8682 11.2891 34.7106 11.2891 35.7497C11.2891 36.7889 12.1315 37.6313 13.1706 37.6313Z" fill="#F26F16"/>
<path d="M30.1042 22.5786C31.1434 22.5786 31.9858 21.7362 31.9858 20.697C31.9858 19.6578 31.1434 18.8154 30.1042 18.8154C29.0651 18.8154 28.2227 19.6578 28.2227 20.697C28.2227 21.7362 29.0651 22.5786 30.1042 22.5786Z" fill="#F26F16"/>
<path d="M47.0378 37.6313C48.077 37.6313 48.9194 36.7889 48.9194 35.7497C48.9194 34.7106 48.077 33.8682 47.0378 33.8682C45.9987 33.8682 45.1562 34.7106 45.1562 35.7497C45.1562 36.7889 45.9987 37.6313 47.0378 37.6313Z" fill="#F26F16"/>
<path d="M18.8152 28.2241C19.8543 28.2241 20.6967 27.3817 20.6967 26.3425C20.6967 25.3033 19.8543 24.4609 18.8152 24.4609C17.776 24.4609 16.9336 25.3033 16.9336 26.3425C16.9336 27.3817 17.776 28.2241 18.8152 28.2241Z" fill="#F26F16"/>
<path d="M56.4459 37.6312H52.6827C52.6827 35.2566 52.3158 32.9197 51.5933 30.6825L55.1758 29.5253C56.0188 32.137 56.4459 34.8652 56.4459 37.6312ZM56.1637 16.8924L51.5801 21.4759C50.8746 22.1817 49.9176 22.5783 48.9196 22.5785C48.1762 22.5766 47.4501 22.3547 46.8325 21.9409C46.215 21.5271 45.7337 20.9398 45.4492 20.2531C45.1648 19.5663 45.0899 18.8107 45.234 18.0814C45.3781 17.3521 45.7347 16.6818 46.259 16.1548L50.8444 11.5694C50.2177 11.3931 49.5706 11.2989 48.9196 11.2891C44.7688 11.2891 41.3933 14.6665 41.3933 18.8154C41.3933 20.2077 41.7978 21.4966 42.4601 22.6162L33.9027 31.1736C32.7551 30.4818 31.4419 30.1132 30.1019 30.1067C25.953 30.1067 22.5756 33.4823 22.5756 37.633C22.5756 41.7838 25.953 45.1594 30.1019 45.1594C34.2508 45.1594 37.6282 41.7819 37.6282 37.633C37.6282 36.2407 37.2256 34.9537 36.5633 33.8323L45.1207 25.2767C46.2677 25.9681 47.5803 26.3367 48.9196 26.3436C53.0703 26.3436 56.4459 22.9661 56.4459 18.8173C56.4355 18.1661 56.3406 17.5191 56.1637 16.8924ZM30.1038 41.3943C28.0284 41.3943 26.3407 39.7065 26.3407 37.6312C26.3407 35.5558 28.0284 33.868 30.1038 33.868C32.1792 33.868 33.867 35.5577 33.867 37.6312C33.867 39.7047 32.1792 41.3943 30.1038 41.3943ZM7.52487 37.6312H3.76172C3.76172 23.1054 15.578 11.2891 30.1038 11.2891C32.8697 11.2891 35.598 11.7162 38.2078 12.5591L37.0525 16.1417C34.8074 15.4178 32.4627 15.0502 30.1038 15.0522C17.6534 15.0522 7.52487 25.1808 7.52487 37.6312Z" fill="#F26F16"/>
</svg>
