<svg width="58" height="58" viewBox="0 0 58 58" fill="none" xmlns="http://www.w3.org/2000/svg">
<path d="M21.6068 50.8401L17.6076 44.1013L10.0019 42.4609L10.7491 34.6133L5.61719 28.7367L10.7515 22.86L10.0019 15.0148L17.61 13.3744L21.6068 6.63325L28.736 9.64344L35.8651 6.63086L39.8643 13.3744L47.47 15.0124L46.7228 22.86L51.8571 28.7367L46.7276 34.6133L47.4724 42.4609L39.8643 44.0989L35.8675 50.8425L28.736 47.8299L21.6068 50.8401ZM22.6294 47.7748L28.736 45.234L34.8713 47.7748L38.3149 42.0274L44.9004 40.5643L44.3017 33.7656L48.732 28.7367L44.3017 23.6814L44.9004 16.8827L38.3149 15.4459L34.8425 9.69852L28.736 12.2417L22.603 9.69852L19.157 15.4459L12.5715 16.8827L13.1702 23.6814L8.73992 28.7367L13.1702 33.7656L12.5715 40.5906L19.157 42.0274L22.6294 47.7748ZM26.2215 35.5808L38.0946 23.7077L36.3991 21.9835L26.2215 32.1611L21.0728 27.0412L19.3773 28.7367L26.2215 35.5808Z" fill="#F26F16"/>
</svg>
